# xmcd
#
# Track frame offsets: 
#        150
#        18795
#        39991
#        58754
#        75032
#        92231
#        116384
#        138269
#        157563
#        172353
#        185298
#
# Disc length: 2636 seconds
#
# Revision: 0
# Processed by: cddbd v1.5.2PL0 Copyright (c) Steve Scherf et al.
# Submitted via: ExactAudioCopy v0.99pb5
#
DISCID=760a4a0b
DTITLE=Jeremy Wallace Trio - Suicide Suitcase
DYEAR=2008
DGENRE=Blues
TTITLE0=Broke and Hungry
TTITLE1=Two Busted Legs
TTITLE2=Virginia
TTITLE3=Backdoor Man
TTITLE4=Lillian
TTITLE5=You Might Do It Too
TTITLE6=Morgan Street
TTITLE7=Deathletter Blues
TTITLE8=Casey Jones
TTITLE9=Gimme Some
TTITLE10=Certain Someone
EXTD=
EXTT0=
EXTT1=
EXTT2=
EXTT3=
EXTT4=
EXTT5=
EXTT6=
EXTT7=
EXTT8=
EXTT9=
EXTT10=
PLAYORDER=
